# xmcd CD database file
#
# Track frame offsets:
#	187
#	17575
#	32022
#	41795
#	56442
#	68520
#	92727
#	105125
#	127857
#	139137
#	146897
#
# Disc length: 2004 seconds
#
# Revision: 0
# Processed by: cddbd v1.5.2PL0 Copyright (c) Steve Scherf et al.
# Submitted via: CDex 1.51
#
DISCID=8b07d20b
DTITLE=Andreas Vollenweider - Caverna Magica
DYEAR=1983
DGENRE=New Age
TTITLE0=Caverna Magica
TTITLE1=Mandragora
TTITLE2=Lunar Pond
TTITLE3=Schajah Saretosh
TTITLE4=Sena Stanjena?
TTITLE5=Belladona
TTITLE6=Angoh!
TTITLE7=Huiziopochtli
TTITLE8=Con Chiglia
TTITLE9=Geastrum Coronatum
TTITLE10=La Paix Verde
EXTD=YEAR: 1983
EXTT0=
EXTT1=
EXTT2=
EXTT3=
EXTT4=
EXTT5=
EXTT6=
EXTT7=
EXTT8=
EXTT9=
EXTT10=
PLAYORDER=
